<svg id="Camada_2" data-name="Camada 2" xmlns="http://www.w3.org/2000/svg" viewBox="0 0 202.2 237.3"><defs><style>.cls-1{fill:#8257e5;}</style></defs><path class="cls-1" d="M101.7,67.6S87.6,59.8,87.6,18.1c0,0,14.8,40.3,38.3,39.3,0,0-5.6-3.5-2.1-22.1,0,0,5.6,32.3,54.7,44.2,0,0,15.2,2.6,14.5,12.7s-9.4,6.2-9.5,19.7c0,9.1-19.9,1.8-19.9,1.8s-9.9-4.1-18,6.2c0,0,3.3-13.3-4.7-13.8S101.7,67.6,101.7,67.6Z" transform="translate(-48.2 -18.1)"/><path class="cls-1" d="M144.4,107.6c-55.1,6.9-55.3,82.5-4.1,93.5,0,0,50.3,10.8,57.4-40.7,0-.8,1.8-21.7-10.1-38.5,0,0-4.7-15.3,3.7-20.5,0,0,13.2-10.8-3.2-21.8,0,0-29.7-8.6-49.5-26,0,0,111.8.7,111.8,96.4S161,254.6,161,254.6,96.7,266.4,59,195.9,92.5,59.6,112.4,67.6Z" transform="translate(-48.2 -18.1)"/></svg>