<?xml version="1.0" encoding="utf-8"?>
<!-- Generator: Adobe Illustrator 25.0.0, SVG Export Plug-In . SVG Version: 6.00 Build 0)  -->
<svg version="1.1" id="Camada_1" xmlns="http://www.w3.org/2000/svg" xmlns:xlink="http://www.w3.org/1999/xlink" x="0px" y="0px"
	 viewBox="0 0 562.9 208.3" style="enable-background:new 0 0 562.9 208.3;" xml:space="preserve">
<style type="text/css">
	.st0{fill:url(#SVGID_1_);}
	.st1{enable-background:new    ;}
	.st2{fill:#FFFFFF;}
</style>
<g id="Camada_2_1_">
	
		<linearGradient id="SVGID_1_" gradientUnits="userSpaceOnUse" x1="422.6211" y1="103.347" x2="563.4011" y2="-3.503" gradientTransform="matrix(1 0 0 -1 -398 175.1)">
		<stop  offset="0" style="stop-color:#FBA93D"/>
		<stop  offset="1" style="stop-color:#CD2E5A"/>
	</linearGradient>
	<path class="st0" d="M88.4,31.5c-2.7,0-5.5,0.1-8.2,0.4c19,20.5,36.4,14.9,44.9,23.9l1.1,1.3l0,0c6.6,8.3-0.2,14.3-0.2,14.3
		c-3.2,2.6-5.1,6.4-5.5,10.5c-0.3,10,3.3,12.5,5,15.4l0.3,0.6l0.4,0.7l0,0c3.7,6.5,5.6,13.8,5.6,21.3c0,24-19.3,43.4-43.3,43.5
		S45,144,45,120.1C45,100.3,58.3,83,77.4,78c10.2-1.7,6.5,10.5,6.5,10.5c16.4-6.8,16.4-2.9,29.4-4.1c2-0.5,3.5-2.1,3.8-4.1
		c0.8-7.4,3.6-6.8,7.4-13.3s-5.6-11.6-8-12.3l0,0c-31.9-8-41.4-22.2-41.4-22.2c-9.3-10.1-9.6-18.6-9.6-18.6c-2.3,8.9-2.1,14-1,16.9
		l0,0L65,32c0.5,0.9,1,1.8,1.6,2.7l-2-0.3l0,0C45.1,31,34.1,0,34.1,0C28.9,18,40,35.5,45.4,42.6C2.6,66.3-12.9,120.2,10.8,163
		s77.6,58.3,120.4,34.6c42.8-23.7,58.3-77.6,34.6-120.4C150.2,49,120.6,31.5,88.4,31.5L88.4,31.5z"/>
</g>
<g id="Camada_3">
	<g class="st1">
		<path class="st2" d="M259.8,110.4l0.1,7c-0.2,4.5-0.8,8.2-1.6,11.3c-0.9,3.1-2.5,5.8-5,8.3c-4.1,4.2-10.2,6.2-18.1,6.2
			c-9.3,0-15.7-1.2-19.2-3.7c-3.5-2.5-5.2-6.9-5.2-13.4v-48H236c7.3,0,13.1,2.1,17.2,6.2c3.4,3.4,5.3,7.4,5.9,12.3
			C259.6,100,259.8,104.6,259.8,110.4z M246.6,122.1c0.3-2.5,0.5-6.3,0.5-11.6c0-5.2-0.2-9-0.5-11.4c-0.3-2.3-1.1-4.2-2.2-5.6
			c-2.2-2.7-5.4-4-9.5-4h-11.4v36.1c0,2.4,0.8,4.1,2.5,5c1.6,0.9,4.6,1.4,8.8,1.4c4.2,0,7.5-1.3,9.7-4
			C245.5,126.5,246.3,124.6,246.6,122.1z"/>
		<path class="st2" d="M320.3,143.3h-14.7l-12.7-24.2h-9.2v24.2H271V92.1c0-4.9,1.1-8.4,3.4-10.7c2.3-2.2,6-3.3,11.3-3.3h10.8
			c6.5,0,11.6,2,15.4,5.9c3.8,3.9,5.7,8.9,5.7,15c0,4.4-1.1,8.2-3.4,11.4s-5.1,5.4-8.5,6.6L320.3,143.3z M302.4,105.7
			c1.7-1.9,2.6-4.2,2.6-7c0-2.8-0.8-5-2.5-6.7c-1.7-1.7-3.9-2.6-6.7-2.6h-6.3c-3.8,0-5.7,1.9-5.7,5.8v13.3h12
			C298.4,108.5,300.6,107.6,302.4,105.7z"/>
		<path class="st2" d="M380.3,143.3H367l-3.7-11.3h-21.9l-3.6,11.3h-13.3l20.9-59.7c0.9-2.1,1.9-3.5,3.1-4.3
			c1.1-0.8,2.5-1.2,4.2-1.2c1.6,0,3,0.4,4,1.1c1,0.7,1.9,2.2,2.7,4.4L380.3,143.3z M360.4,121.3l-7.7-25.8l-8.1,25.8H360.4z"/>
		<path class="st2" d="M385.2,112.6v-8.1c0-8.5,2.2-15.1,6.7-19.9c4.5-4.8,10.6-7.1,18.5-7.1s14.2,2.4,18.9,7.1
			c3.4,3.4,5,8.4,5,15.1h-11.9c0-7.3-3.9-10.9-11.6-10.9c-2.3,0-4.3,0.4-5.9,1.3c-1.6,0.9-2.8,1.9-3.6,3.1c-0.8,1.2-1.4,2.9-1.8,5.1
			c-0.4,2.3-0.7,4.1-0.7,5.7c-0.1,1.5-0.1,3.6-0.1,6.1s0,4.3,0,5.2c0,0.9,0.1,2.3,0.3,4.3c0.2,2,0.4,3.4,0.7,4.3
			c0.3,0.9,0.8,2,1.5,3.3c0.6,1.3,1.4,2.3,2.4,2.8c2.5,1.6,5.3,2.4,8.5,2.4c5.3,0,9.1-2.3,11.3-6.8v-4.4h-7.9v-10.6h18.8v19.7
			c-1.9,4.5-4.9,7.8-9,10.1c-4.1,2.3-8.7,3.4-13.9,3.4c-9.2,0-15.9-2.6-20-7.7C387.3,131,385.2,123.1,385.2,112.6z"/>
		<path class="st2" d="M495.3,107.7v4.9c0,10.9-2.1,18.9-6.2,23.8c-4.1,4.9-10.7,7.4-19.8,7.4c-9.1,0-15.7-2.5-19.7-7.4
			c-4.1-4.9-6.1-13-6.1-24.1v-4.8c0-10.1,2.1-17.7,6.2-22.6c4.1-4.9,10.6-7.4,19.6-7.4c8.9,0,15.5,2.5,19.7,7.5
			C493.2,90.1,495.3,97.6,495.3,107.7z M482.6,112.4V109c0-5.9-0.7-10.5-2.2-14c-1.7-4-5.4-6-11-6c-5.7,0-9.4,2-11.1,6
			c-1.4,3.3-2.1,8-2.1,14v3.4c0,7.9,1.1,13.2,3.3,15.9c0.9,1.2,2.1,2.2,3.8,3c1.7,0.8,3.7,1.2,6,1.2c2.3,0,4.3-0.4,6-1.2
			c1.6-0.8,2.9-1.8,3.8-2.9c0.9-1.2,1.6-2.7,2.1-4.6C482.2,120.8,482.6,117,482.6,112.4z"/>
		<path class="st2" d="M557.3,78.1v58.6c0,2-0.6,3.7-1.8,5.2c-1.2,1.4-2.7,2.2-4.3,2.2c-4.2,0-7.7-2.4-10.3-7.3l-22.5-35.2v41.8
			h-12.7V78.1h12.3l26.7,42.6V78.1H557.3z"/>
	</g>
</g>
</svg>
